<mxfile host="app.diagrams.net" modified="2023-11-27T00:28:15.956Z" agent="Mozilla/5.0 (Windows NT 10.0; Win64; x64) AppleWebKit/537.36 (KHTML, like Gecko) Chrome/119.0.0.0 Safari/537.36" etag="gUZWQpw92moWEGUtN6l9" version="22.1.4" type="github">
  <diagram name="Page-1" id="QJkYr3YyQtu9XDif9vQC">
    <mxGraphModel dx="1050" dy="522" grid="1" gridSize="10" guides="1" tooltips="1" connect="1" arrows="1" fold="1" page="1" pageScale="1" pageWidth="827" pageHeight="1169" math="0" shadow="0">
      <root>
        <mxCell id="0" />
        <mxCell id="1" parent="0" />
        <mxCell id="nMEmDtbistIGeua0Nfbf-2" style="edgeStyle=orthogonalEdgeStyle;rounded=0;orthogonalLoop=1;jettySize=auto;html=1;" edge="1" parent="1" source="nMEmDtbistIGeua0Nfbf-1" target="nMEmDtbistIGeua0Nfbf-3">
          <mxGeometry relative="1" as="geometry">
            <mxPoint x="240" y="200" as="targetPoint" />
          </mxGeometry>
        </mxCell>
        <mxCell id="nMEmDtbistIGeua0Nfbf-4" style="edgeStyle=orthogonalEdgeStyle;rounded=0;orthogonalLoop=1;jettySize=auto;html=1;" edge="1" parent="1" source="nMEmDtbistIGeua0Nfbf-1" target="nMEmDtbistIGeua0Nfbf-5">
          <mxGeometry relative="1" as="geometry">
            <mxPoint x="720" y="160" as="targetPoint" />
          </mxGeometry>
        </mxCell>
        <mxCell id="nMEmDtbistIGeua0Nfbf-1" value="&lt;font style=&quot;font-size: 18px;&quot;&gt;&lt;b&gt;Kubernetes Cluster&lt;/b&gt;&lt;/font&gt;" style="rounded=0;whiteSpace=wrap;html=1;fillColor=#508EFA;" vertex="1" parent="1">
          <mxGeometry x="285" y="80" width="310" height="60" as="geometry" />
        </mxCell>
        <mxCell id="nMEmDtbistIGeua0Nfbf-6" style="edgeStyle=orthogonalEdgeStyle;rounded=0;orthogonalLoop=1;jettySize=auto;html=1;exitX=0.5;exitY=1;exitDx=0;exitDy=0;" edge="1" parent="1" source="nMEmDtbistIGeua0Nfbf-3" target="nMEmDtbistIGeua0Nfbf-7">
          <mxGeometry relative="1" as="geometry">
            <mxPoint x="200" y="280" as="targetPoint" />
          </mxGeometry>
        </mxCell>
        <mxCell id="nMEmDtbistIGeua0Nfbf-3" value="&lt;font size=&quot;3&quot;&gt;&lt;b&gt;Master Node&lt;/b&gt;&lt;/font&gt;" style="ellipse;whiteSpace=wrap;html=1;fillColor=#99FF99;" vertex="1" parent="1">
          <mxGeometry x="140" y="160" width="120" height="80" as="geometry" />
        </mxCell>
        <mxCell id="nMEmDtbistIGeua0Nfbf-19" style="edgeStyle=orthogonalEdgeStyle;rounded=0;orthogonalLoop=1;jettySize=auto;html=1;exitX=0.5;exitY=1;exitDx=0;exitDy=0;" edge="1" parent="1" source="nMEmDtbistIGeua0Nfbf-5" target="nMEmDtbistIGeua0Nfbf-20">
          <mxGeometry relative="1" as="geometry">
            <mxPoint x="680" y="280" as="targetPoint" />
          </mxGeometry>
        </mxCell>
        <mxCell id="nMEmDtbistIGeua0Nfbf-5" value="&lt;font size=&quot;3&quot;&gt;&lt;b&gt;Worker Node&lt;/b&gt;&lt;/font&gt;" style="ellipse;whiteSpace=wrap;html=1;fillColor=#d5e8d4;strokeColor=#82b366;" vertex="1" parent="1">
          <mxGeometry x="620" y="160" width="120" height="80" as="geometry" />
        </mxCell>
        <mxCell id="nMEmDtbistIGeua0Nfbf-17" style="edgeStyle=orthogonalEdgeStyle;rounded=0;orthogonalLoop=1;jettySize=auto;html=1;exitX=0.5;exitY=1;exitDx=0;exitDy=0;entryX=0.5;entryY=0;entryDx=0;entryDy=0;" edge="1" parent="1" source="nMEmDtbistIGeua0Nfbf-7" target="nMEmDtbistIGeua0Nfbf-10">
          <mxGeometry relative="1" as="geometry" />
        </mxCell>
        <mxCell id="nMEmDtbistIGeua0Nfbf-7" value="&lt;font size=&quot;3&quot;&gt;&lt;b&gt;API Server&lt;/b&gt;&lt;/font&gt;" style="rounded=0;whiteSpace=wrap;html=1;" vertex="1" parent="1">
          <mxGeometry x="140" y="280" width="120" height="40" as="geometry" />
        </mxCell>
        <mxCell id="nMEmDtbistIGeua0Nfbf-11" style="edgeStyle=orthogonalEdgeStyle;rounded=0;orthogonalLoop=1;jettySize=auto;html=1;" edge="1" parent="1" source="nMEmDtbistIGeua0Nfbf-10">
          <mxGeometry relative="1" as="geometry">
            <mxPoint x="200" y="480" as="targetPoint" />
          </mxGeometry>
        </mxCell>
        <mxCell id="nMEmDtbistIGeua0Nfbf-10" value="&lt;font size=&quot;3&quot;&gt;&lt;b&gt;Kube scheduler&lt;/b&gt;&lt;/font&gt;" style="rounded=0;whiteSpace=wrap;html=1;" vertex="1" parent="1">
          <mxGeometry x="130" y="360" width="140" height="40" as="geometry" />
        </mxCell>
        <mxCell id="nMEmDtbistIGeua0Nfbf-13" value="&lt;font style=&quot;font-size: 18px;&quot;&gt;&lt;b&gt;ETCD&lt;/b&gt;&lt;/font&gt;" style="rounded=1;whiteSpace=wrap;html=1;" vertex="1" parent="1">
          <mxGeometry x="140" y="525" width="120" height="35" as="geometry" />
        </mxCell>
        <mxCell id="nMEmDtbistIGeua0Nfbf-15" style="edgeStyle=orthogonalEdgeStyle;rounded=0;orthogonalLoop=1;jettySize=auto;html=1;exitX=0.5;exitY=1;exitDx=0;exitDy=0;entryX=0.5;entryY=0;entryDx=0;entryDy=0;" edge="1" parent="1" source="nMEmDtbistIGeua0Nfbf-14" target="nMEmDtbistIGeua0Nfbf-13">
          <mxGeometry relative="1" as="geometry" />
        </mxCell>
        <mxCell id="nMEmDtbistIGeua0Nfbf-14" value="&lt;font style=&quot;font-size: 14px;&quot;&gt;&lt;b&gt;Kube-Controller&lt;/b&gt;&lt;/font&gt;" style="rounded=1;whiteSpace=wrap;html=1;" vertex="1" parent="1">
          <mxGeometry x="140" y="440" width="120" height="40" as="geometry" />
        </mxCell>
        <mxCell id="nMEmDtbistIGeua0Nfbf-18" style="edgeStyle=orthogonalEdgeStyle;rounded=0;orthogonalLoop=1;jettySize=auto;html=1;exitX=0.5;exitY=1;exitDx=0;exitDy=0;" edge="1" parent="1" source="nMEmDtbistIGeua0Nfbf-7" target="nMEmDtbistIGeua0Nfbf-7">
          <mxGeometry relative="1" as="geometry" />
        </mxCell>
        <mxCell id="nMEmDtbistIGeua0Nfbf-21" style="edgeStyle=orthogonalEdgeStyle;rounded=0;orthogonalLoop=1;jettySize=auto;html=1;exitX=0.5;exitY=1;exitDx=0;exitDy=0;" edge="1" parent="1" source="nMEmDtbistIGeua0Nfbf-20" target="nMEmDtbistIGeua0Nfbf-22">
          <mxGeometry relative="1" as="geometry">
            <mxPoint x="680" y="360" as="targetPoint" />
          </mxGeometry>
        </mxCell>
        <mxCell id="nMEmDtbistIGeua0Nfbf-20" value="&lt;font style=&quot;font-size: 18px;&quot;&gt;&lt;b&gt;Kubelet&lt;/b&gt;&lt;/font&gt;" style="rounded=1;whiteSpace=wrap;html=1;" vertex="1" parent="1">
          <mxGeometry x="595" y="280" width="170" height="40" as="geometry" />
        </mxCell>
        <mxCell id="nMEmDtbistIGeua0Nfbf-24" style="edgeStyle=orthogonalEdgeStyle;rounded=0;orthogonalLoop=1;jettySize=auto;html=1;exitX=0.5;exitY=1;exitDx=0;exitDy=0;entryX=0.5;entryY=0;entryDx=0;entryDy=0;" edge="1" parent="1" source="nMEmDtbistIGeua0Nfbf-22" target="nMEmDtbistIGeua0Nfbf-23">
          <mxGeometry relative="1" as="geometry" />
        </mxCell>
        <mxCell id="nMEmDtbistIGeua0Nfbf-22" value="&lt;font style=&quot;font-size: 18px;&quot;&gt;&lt;b&gt;Kube Proxy&lt;/b&gt;&lt;/font&gt;" style="rounded=1;whiteSpace=wrap;html=1;" vertex="1" parent="1">
          <mxGeometry x="605" y="360" width="150" height="40" as="geometry" />
        </mxCell>
        <mxCell id="nMEmDtbistIGeua0Nfbf-23" value="&lt;font style=&quot;font-size: 18px;&quot;&gt;&lt;b&gt;Container Run Time&lt;/b&gt;&lt;/font&gt;" style="rounded=1;whiteSpace=wrap;html=1;" vertex="1" parent="1">
          <mxGeometry x="585" y="440" width="190" height="40" as="geometry" />
        </mxCell>
        <mxCell id="nMEmDtbistIGeua0Nfbf-25" value="&lt;font style=&quot;font-size: 18px;&quot;&gt;&lt;b&gt;KUBERNETES ARCHITECTURE&lt;/b&gt;&lt;/font&gt;" style="rounded=0;whiteSpace=wrap;html=1;fillColor=#f8cecc;strokeColor=#b85450;" vertex="1" parent="1">
          <mxGeometry x="270" width="340" height="60" as="geometry" />
        </mxCell>
      </root>
    </mxGraphModel>
  </diagram>
</mxfile>
